{"accessors":[{"name":"Node-Mesh_0_positions","componentType":5126,"count":9052,"min":[-0.4604490101337433,0.015651000663638115,-0.8901950120925903],"max":[0.4604490101337433,1.3966939449310303,0.8845790028572083],"type":"VEC3","bufferView":0,"byteOffset":0},{"name":"Node-Mesh_0_normals","componentType":5126,"count":9052,"min":[-0.9990182518959045,-0.9989635944366455,-0.9998841285705566],"max":[0.9990182518959045,0.9998112916946411,1],"type":"VEC3","bufferView":1,"byteOffset":0},{"name":"Node-Mesh_0_texcoords","componentType":5126,"count":9052,"min":[0.0117419995367527,0.011792000383138657],"max":[0.9876390099525452,0.9898380041122437],"type":"VEC2","bufferView":2,"byteOffset":0},{"name":"Node-Mesh_0_indices","componentType":5123,"count":12948,"min":[0],"max":[9051],"type":"SCALAR","bufferView":3,"byteOffset":0}],"asset":{"generator":"obj2gltf","version":"2.0"},"buffers":[{"name":"Shiba","byteLength":2205816,"uri":"data:application/octet-stream;base64,"}],"bufferViews":[{"name":"bufferView_0","buffer":0,"byteLength":108624,"byteOffset":0,"byteStride":12,"target":34962},{"name":"bufferView_1","buffer":0,"byteLength":108624,"byteOffset":108624,"byteStride":12,"target":34962},{"name":"bufferView_2","buffer":0,"byteLength":72416,"byteOffset":217248,"byteStride":8,"target":34962},{"name":"bufferView_3","buffer":0,"byteLength":25896,"byteOffset":289664,"target":34963},{"buffer":0,"byteOffset":315560,"byteLength":1890253}],"images":[{"name":"Dark","mimeType":"image/png","bufferView":4}],"materials":[{"name":"Group18985SG","pbrMetallicRoughness":{"baseColorTexture":{"index":0},"baseColorFactor":[1,1,1,1],"metallicFactor":0,"roughnessFactor":1},"emissiveFactor":[0,0,0],"alphaMode":"OPAQUE","doubleSided":false}],"meshes":[{"name":"Node-Mesh","primitives":[{"attributes":{"POSITION":0,"NORMAL":1,"TEXCOORD_0":2},"indices":3,"material":0,"mode":4}]}],"nodes":[{"name":"Node","mesh":0}],"samplers":[{"magFilter":9729,"minFilter":9986,"wrapS":10497,"wrapT":10497}],"scene":0,"scenes":[{"nodes":[0]}],"textures":[{"name":"Dark","sampler":0,"source":0}]}